<svg viewBox="0 0 100 100" xmlns="http://www.w3.org/2000/svg">
  <!-- Mandala favicon -->
  <circle cx="50" cy="50" r="45" fill="#1A0A00"/>
  <!-- Petals -->
  <ellipse cx="50" cy="20" rx="6" ry="12" fill="#C9A96E" transform="rotate(0, 50, 50)"/>
  <ellipse cx="50" cy="20" rx="6" ry="12" fill="#C9A96E" transform="rotate(45, 50, 50)"/>
  <ellipse cx="50" cy="20" rx="6" ry="12" fill="#C9A96E" transform="rotate(90, 50, 50)"/>
  <ellipse cx="50" cy="20" rx="6" ry="12" fill="#C9A96E" transform="rotate(135, 50, 50)"/>
  <ellipse cx="50" cy="20" rx="6" ry="12" fill="#8B1A1A" transform="rotate(22.5, 50, 50)"/>
  <ellipse cx="50" cy="20" rx="6" ry="12" fill="#8B1A1A" transform="rotate(67.5, 50, 50)"/>
  <ellipse cx="50" cy="20" rx="6" ry="12" fill="#8B1A1A" transform="rotate(112.5, 50, 50)"/>
  <ellipse cx="50" cy="20" rx="6" ry="12" fill="#8B1A1A" transform="rotate(157.5, 50, 50)"/>
  <circle cx="50" cy="50" r="10" fill="#C9A96E"/>
  <circle cx="50" cy="50" r="5" fill="#FFE4A0"/>
</svg>
